<svg width="42" height="42" viewBox="0 0 42 42" fill="none" xmlns="http://www.w3.org/2000/svg">
<path d="M29.9875 1.51172H12.0126C6.21255 1.51172 1.51172 6.21339 1.51172 12.0126V29.9875C1.51172 35.7875 6.21338 40.4884 12.0134 40.4884H29.9867C35.7867 40.4884 40.4884 35.7867 40.4884 29.9867V12.0126C40.4884 6.21255 35.7875 1.51172 29.9875 1.51172Z" stroke="#EC8DA2" stroke-width="2" stroke-miterlimit="10"/>
<path d="M21.0001 30.4085C26.1962 30.4085 30.4085 26.1962 30.4085 21.0001C30.4085 15.8041 26.1962 11.5918 21.0001 11.5918C15.8041 11.5918 11.5918 15.8041 11.5918 21.0001C11.5918 26.1962 15.8041 30.4085 21.0001 30.4085Z" stroke="#EC8DA2" stroke-width="2" stroke-miterlimit="10"/>
<path d="M32.424 11.5912C33.5373 11.5912 34.4399 10.6887 34.4399 9.5754C34.4399 8.46209 33.5373 7.55957 32.424 7.55957C31.3107 7.55957 30.4082 8.46209 30.4082 9.5754C30.4082 10.6887 31.3107 11.5912 32.424 11.5912Z" fill="#EC8DA2"/>
</svg>
