<svg width="60" height="60" viewBox="0 0 60 60" fill="none" xmlns="http://www.w3.org/2000/svg">
<path d="M38.9875 10.5117H21.0126C15.2126 10.5117 10.5117 15.2134 10.5117 21.0126V38.9875C10.5117 44.7875 15.2134 49.4884 21.0134 49.4884H38.9867C44.7867 49.4884 49.4884 44.7867 49.4884 38.9867V21.0126C49.4884 15.2126 44.7875 10.5117 38.9875 10.5117Z" fill="white"/>
<path d="M38.9875 10.5117H21.0126C15.2126 10.5117 10.5117 15.2134 10.5117 21.0126V38.9875C10.5117 44.7875 15.2134 49.4884 21.0134 49.4884H38.9867C44.7867 49.4884 49.4884 44.7867 49.4884 38.9867V21.0126C49.4884 15.2126 44.7875 10.5117 38.9875 10.5117Z" stroke="#EC8DA2" stroke-width="2" stroke-miterlimit="10"/>
<path d="M30 39.4085C35.1961 39.4085 39.4083 35.1962 39.4083 30.0001C39.4083 24.8041 35.1961 20.5918 30 20.5918C24.8039 20.5918 20.5917 24.8041 20.5917 30.0001C20.5917 35.1962 24.8039 39.4085 30 39.4085Z" stroke="#EC8DA2" stroke-width="2" stroke-miterlimit="10"/>
<path d="M41.4242 20.5917C42.5375 20.5917 43.44 19.6892 43.44 18.5759C43.44 17.4626 42.5375 16.5601 41.4242 16.5601C40.3108 16.5601 39.4083 17.4626 39.4083 18.5759C39.4083 19.6892 40.3108 20.5917 41.4242 20.5917Z" fill="#EC8DA2"/>
</svg>
