<svg width="45" height="46" viewBox="0 0 45 46" fill="none" xmlns="http://www.w3.org/2000/svg">
<path fill-rule="evenodd" clip-rule="evenodd" d="M10.8532 26.7876C10.9338 26.8144 11.0166 26.8339 11.1007 26.8457C11.6312 28.0957 12.1587 29.347 12.6832 30.5995C13.6263 32.8532 14.577 35.1745 14.7851 35.842C15.0457 36.6632 15.3195 37.222 15.6195 37.6045C15.7751 37.7995 15.9532 37.972 16.1632 38.1032C16.2726 38.1717 16.3897 38.227 16.512 38.2682C17.112 38.4932 17.6595 38.3995 18.0026 38.2851C18.2039 38.2164 18.3955 38.1218 18.5726 38.0038L18.582 38.0001L23.8807 34.6963L30.0026 39.3876C30.0926 39.457 30.1901 39.5151 30.2951 39.562C31.0301 39.8807 31.7426 39.9932 32.4138 39.9032C33.0813 39.8095 33.612 39.5301 34.0076 39.2132C34.4619 38.8471 34.824 38.3796 35.0651 37.8482L35.082 37.807L35.0876 37.792L35.0913 37.7845V37.7807L35.0932 37.7788C35.1258 37.6982 35.1509 37.6147 35.1682 37.5295L40.7557 9.3576C40.7734 9.26742 40.7822 9.17573 40.782 9.08385C40.782 8.25885 40.4707 7.47322 39.7413 6.99885C39.1151 6.59197 38.4195 6.57322 37.9788 6.60697C37.5063 6.64447 37.0676 6.76072 36.7732 6.85447C36.6084 6.9067 36.4458 6.9655 36.2857 7.03072L36.2651 7.0401L4.92634 19.3326L4.92259 19.3345C4.81655 19.3735 4.7121 19.4166 4.60946 19.4638C4.36095 19.5756 4.12257 19.7086 3.89696 19.8613C3.47134 20.152 2.49071 20.9507 2.65759 22.2707C2.78884 23.3207 3.50884 23.9676 3.94946 24.2788C4.18946 24.4495 4.41821 24.5713 4.58696 24.652C4.66196 24.6895 4.82321 24.7532 4.89259 24.7832L4.91134 24.7888L10.8532 26.7876ZM37.362 9.6276H37.3582C37.3421 9.63476 37.3258 9.64164 37.3095 9.64822L5.93321 21.9576C5.91707 21.9641 5.90082 21.9704 5.88446 21.9763L5.86571 21.982C5.80839 22.0045 5.75209 22.0295 5.69696 22.057C5.74915 22.0869 5.80299 22.1138 5.85821 22.1376L11.7495 24.1213C11.8547 24.1568 11.9554 24.2047 12.0495 24.2638L31.5063 12.8732L31.5251 12.8638C31.6007 12.8179 31.6782 12.7754 31.7576 12.7363C31.8926 12.667 32.1082 12.5657 32.352 12.4907C32.5207 12.4382 33.0213 12.2901 33.5613 12.4645C33.8478 12.5548 34.103 12.7238 34.298 12.9522C34.4929 13.1806 34.6197 13.4593 34.6638 13.7563C34.7337 14.0165 34.7356 14.2902 34.6695 14.5513C34.5382 15.067 34.1782 15.4682 33.8482 15.7757C33.567 16.0382 29.9201 19.5557 26.322 23.0282L21.4226 27.7532L20.5507 28.597L31.5607 37.0382C31.7093 37.1006 31.8707 37.1263 32.0313 37.1132C32.1122 37.1022 32.1883 37.0684 32.2507 37.0157C32.3267 36.9516 32.3919 36.8756 32.4438 36.7907L32.4476 36.7888L37.8663 9.46447C37.6956 9.50553 37.5283 9.55943 37.3657 9.62572L37.362 9.6276ZM21.4976 32.8663L19.3001 31.1826L18.7676 34.567L21.4976 32.8663ZM17.2845 27.8413L19.4688 25.732L24.3682 21.0032L26.1926 19.2445L13.9676 26.4013L14.0332 26.5551C14.8042 28.3765 15.5667 30.2015 16.3207 32.0301L16.8513 28.6551C16.8994 28.3421 17.052 28.0564 17.2845 27.8413Z" fill="#EC8DA2"/>
</svg>
