<svg width="39" height="34" viewBox="0 0 39 34" fill="none" xmlns="http://www.w3.org/2000/svg">
<path fill-rule="evenodd" clip-rule="evenodd" d="M8.85321 20.7876C8.93378 20.8144 9.01662 20.8339 9.10071 20.8457C9.63119 22.0957 10.1587 23.347 10.6832 24.5995C11.6263 26.8532 12.577 29.1745 12.7851 29.842C13.0457 30.6632 13.3195 31.222 13.6195 31.6045C13.7751 31.7995 13.9532 31.972 14.1632 32.1032C14.2726 32.1717 14.3897 32.227 14.512 32.2682C15.112 32.4932 15.6595 32.3995 16.0026 32.2851C16.2039 32.2164 16.3955 32.1218 16.5726 32.0038L16.582 32.0001L21.8807 28.6963L28.0026 33.3876C28.0926 33.457 28.1901 33.5151 28.2951 33.562C29.0301 33.8807 29.7426 33.9932 30.4138 33.9032C31.0813 33.8095 31.612 33.5301 32.0076 33.2132C32.4619 32.8471 32.824 32.3796 33.0651 31.8482L33.082 31.807L33.0876 31.792L33.0913 31.7845V31.7807L33.0932 31.7788C33.1258 31.6982 33.1509 31.6147 33.1682 31.5295L38.7557 3.3576C38.7734 3.26742 38.7822 3.17573 38.782 3.08385C38.782 2.25885 38.4707 1.47322 37.7413 0.998846C37.1151 0.591971 36.4195 0.573221 35.9788 0.606971C35.5063 0.644471 35.0676 0.760721 34.7732 0.854471C34.6084 0.906699 34.4458 0.965496 34.2857 1.03072L34.2651 1.0401L2.92634 13.3326L2.92259 13.3345C2.81655 13.3735 2.7121 13.4166 2.60946 13.4638C2.36095 13.5756 2.12257 13.7086 1.89696 13.8613C1.47134 14.152 0.490712 14.9507 0.657587 16.2707C0.788837 17.3207 1.50884 17.9676 1.94946 18.2788C2.18946 18.4495 2.41821 18.5713 2.58696 18.652C2.66196 18.6895 2.82321 18.7532 2.89259 18.7832L2.91134 18.7888L8.85321 20.7876ZM35.362 3.6276H35.3582C35.3421 3.63476 35.3258 3.64164 35.3095 3.64822L3.93321 15.9576C3.91707 15.9641 3.90082 15.9704 3.88446 15.9763L3.86571 15.982C3.80839 16.0045 3.75209 16.0295 3.69696 16.057C3.74915 16.0869 3.80299 16.1138 3.85821 16.1376L9.74946 18.1213C9.85474 18.1568 9.95544 18.2047 10.0495 18.2638L29.5063 6.87322L29.5251 6.86385C29.6007 6.81792 29.6782 6.77538 29.7576 6.73635C29.8926 6.66697 30.1082 6.56572 30.352 6.49072C30.5207 6.43822 31.0213 6.2901 31.5613 6.46447C31.8478 6.55475 32.103 6.72376 32.298 6.9522C32.4929 7.18063 32.6197 7.45929 32.6638 7.75635C32.7337 8.0165 32.7356 8.29022 32.6695 8.55135C32.5382 9.06697 32.1782 9.46822 31.8482 9.77572C31.567 10.0382 27.9201 13.5557 24.322 17.0282L19.4226 21.7532L18.5507 22.597L29.5607 31.0382C29.7093 31.1006 29.8707 31.1263 30.0313 31.1132C30.1122 31.1022 30.1883 31.0684 30.2507 31.0157C30.3267 30.9516 30.3919 30.8756 30.4438 30.7907L30.4476 30.7888L35.8663 3.46447C35.6956 3.50553 35.5283 3.55943 35.3657 3.62572L35.362 3.6276ZM19.4976 26.8663L17.3001 25.1826L16.7676 28.567L19.4976 26.8663ZM15.2845 21.8413L17.4688 19.732L22.3682 15.0032L24.1926 13.2445L11.9676 20.4013L12.0332 20.5551C12.8042 22.3765 13.5667 24.2015 14.3207 26.0301L14.8513 22.6551C14.8994 22.3421 15.052 22.0564 15.2845 21.8413Z" fill="#EC8DA2"/>
</svg>
