<svg width="37" height="41" viewBox="0 0 37 41" fill="none" xmlns="http://www.w3.org/2000/svg">
<path d="M10.9341 9.12875C10.5856 9.07803 10.2303 9.14817 9.92722 9.3275H9.90097C9.19784 9.74 8.56409 10.2594 8.02409 10.8706C7.57409 11.39 7.33034 11.915 7.26659 12.4213C7.22909 12.7213 7.25534 13.025 7.34347 13.3119L7.37722 13.3306C7.88347 14.8175 8.54347 16.2481 9.34972 17.5944C10.3893 19.4853 11.6686 21.2341 13.156 22.7975L13.201 22.8612L13.2722 22.9137L13.3153 22.9644L13.3678 23.0094C14.9367 24.5012 16.6896 25.7866 18.5841 26.8344C20.7497 28.0138 22.0641 28.5706 22.8535 28.8031V28.8144C23.0841 28.8856 23.2941 28.9175 23.506 28.9175C24.1782 28.8678 24.8145 28.5946 25.3135 28.1412C25.9228 27.6012 26.4385 26.9656 26.8397 26.2588V26.2456C27.2166 25.5331 27.0891 24.8619 26.5453 24.4062C25.4531 23.4519 24.2721 22.6043 23.0185 21.875C22.1785 21.4194 21.3253 21.695 20.9803 22.1562L20.2435 23.0863C19.8647 23.5475 19.1785 23.4837 19.1785 23.4837L19.1597 23.495C14.0391 22.1881 12.6722 17.0038 12.6722 17.0038C12.6722 17.0038 12.6085 16.2987 13.0828 15.9387L14.0053 15.1962C14.4478 14.8362 14.7553 13.985 14.281 13.145C13.5565 11.8902 12.7105 10.7095 11.7553 9.62C11.547 9.36359 11.2548 9.18895 10.9303 9.12688L10.9341 9.12875ZM19.5872 6.875C19.3386 6.875 19.1001 6.97377 18.9243 7.14959C18.7485 7.3254 18.6497 7.56386 18.6497 7.8125C18.6497 8.06114 18.7485 8.2996 18.9243 8.47541C19.1001 8.65123 19.3386 8.75 19.5872 8.75C21.9572 8.75 23.926 9.52437 25.4841 11.0094C26.2847 11.8212 26.9091 12.7831 27.3178 13.8369C27.7285 14.8925 27.916 16.0194 27.8672 17.1481C27.8568 17.3968 27.9455 17.6394 28.114 17.8226C28.2824 18.0058 28.5167 18.1146 28.7653 18.125C29.014 18.1354 29.2566 18.0467 29.4398 17.8783C29.623 17.7098 29.7318 17.4755 29.7422 17.2269C29.8004 15.8384 29.5699 14.453 29.0653 13.1581C28.5586 11.8571 27.7902 10.674 26.8078 9.68188L26.7891 9.66313C24.856 7.81625 22.411 6.875 19.5872 6.875Z" fill="#EC8DA2"/>
<path d="M19.5215 9.95793C19.2728 9.95793 19.0344 10.0567 18.8586 10.2325C18.6828 10.4083 18.584 10.6468 18.584 10.8954C18.584 11.1441 18.6828 11.3825 18.8586 11.5583C19.0344 11.7342 19.2728 11.8329 19.5215 11.8329H19.5534C21.2634 11.9548 22.5084 12.5248 23.3802 13.4604C24.2746 14.4242 24.7377 15.6223 24.7021 17.1036C24.6964 17.3522 24.7897 17.5929 24.9614 17.7728C25.1332 17.9526 25.3694 18.0569 25.618 18.0626C25.8667 18.0683 26.1074 17.975 26.2873 17.8033C26.4671 17.6315 26.5714 17.3953 26.5771 17.1467C26.6221 15.2023 25.9959 13.5242 24.7546 12.1854V12.1817C23.4852 10.8204 21.7434 10.1004 19.6471 9.9598L19.6152 9.95605L19.5215 9.95793Z" fill="#EC8DA2"/>
<path d="M19.4867 13.0984C19.3612 13.0873 19.2348 13.1016 19.115 13.1405C18.9952 13.1793 18.8845 13.2419 18.7894 13.3246C18.6943 13.4072 18.6169 13.5081 18.5617 13.6213C18.5065 13.7345 18.4746 13.8577 18.4681 13.9834C18.4615 14.1092 18.4804 14.235 18.5235 14.3534C18.5667 14.4717 18.6332 14.5801 18.7192 14.6722C18.8052 14.7642 18.9088 14.838 19.0239 14.8891C19.139 14.9402 19.2633 14.9676 19.3892 14.9696C20.1729 15.0109 20.6736 15.2471 20.9886 15.564C21.3054 15.8827 21.5417 16.3946 21.5848 17.1952C21.5872 17.321 21.6148 17.4451 21.6661 17.56C21.7174 17.6749 21.7913 17.7783 21.8834 17.864C21.9755 17.9498 22.084 18.0161 22.2022 18.059C22.3205 18.102 22.4462 18.1207 22.5719 18.114C22.6975 18.1073 22.8206 18.0754 22.9336 18.0202C23.0467 17.9649 23.1475 17.8875 23.23 17.7925C23.3125 17.6975 23.375 17.5869 23.4139 17.4672C23.4527 17.3475 23.4671 17.2212 23.4561 17.0959C23.3961 15.9709 23.0436 14.9771 22.3217 14.2459C21.5961 13.5146 20.6079 13.1584 19.4867 13.0984Z" fill="#EC8DA2"/>
<path fill-rule="evenodd" clip-rule="evenodd" d="M9.25027 1.96999C15.2166 0.636307 21.4039 0.636307 27.3703 1.96999L28.0059 2.11061C29.75 2.50052 31.3519 3.36635 32.6335 4.6119C33.9152 5.85746 34.8264 7.43396 35.2659 9.16624C36.7803 15.1342 36.7803 21.3858 35.2659 27.3537C34.8264 29.086 33.9152 30.6625 32.6335 31.9081C31.3519 33.1536 29.75 34.0194 28.0059 34.4094L27.3684 34.55C23.6316 35.3856 19.7971 35.7005 15.974 35.4856L10.9996 39.9369C10.8121 40.1048 10.5829 40.2193 10.3361 40.2684C10.0892 40.3175 9.83364 40.2995 9.59611 40.2161C9.35858 40.1328 9.14777 39.9873 8.98568 39.7947C8.8236 39.6021 8.71618 39.3695 8.67465 39.1212L7.85152 34.205C6.27311 33.7139 4.84704 32.8261 3.70959 31.6266C2.57214 30.4271 1.76133 28.956 1.35464 27.3537C-0.159881 21.3858 -0.159881 15.1341 1.35464 9.16624C1.79418 7.43396 2.70539 5.85746 3.98702 4.6119C5.26865 3.36635 6.87052 2.50052 8.61465 2.11061L9.25027 1.96999ZM26.7571 4.71311C21.1945 3.46962 15.426 3.46962 9.86339 4.71311L9.2259 4.85561C7.98974 5.13247 6.85452 5.74653 5.94628 6.62961C5.03805 7.51269 4.39235 8.63022 4.08089 9.85811C2.68161 15.372 2.68161 21.148 4.08089 26.6619C4.3925 27.89 5.03848 29.0077 5.94707 29.8908C6.85565 30.7739 7.99127 31.3878 9.22777 31.6644L9.39652 31.7019C9.66951 31.7629 9.91809 31.904 10.1105 32.1071C10.3029 32.3101 10.4303 32.566 10.4765 32.8419L11.0278 36.1381L14.5378 32.9975C14.6779 32.8717 14.8419 32.7753 15.0201 32.7141C15.1982 32.653 15.3868 32.6282 15.5746 32.6412C19.3229 32.9071 23.0899 32.6261 26.7571 31.8069L27.3928 31.6644C28.6293 31.3878 29.7649 30.7739 30.6735 29.8908C31.5821 29.0077 32.228 27.89 32.5397 26.6619C33.9384 21.1494 33.9384 15.3725 32.5397 9.85811C32.228 8.62998 31.5821 7.51228 30.6735 6.62918C29.7649 5.74608 28.6293 5.13216 27.3928 4.85561L26.7571 4.71311Z" fill="#EC8DA2"/>
</svg>
