<svg width="60" height="60" viewBox="0 0 60 60" fill="none" xmlns="http://www.w3.org/2000/svg">
<path d="M36.98 26.9375L27.81 21.6575C27.2716 21.3475 26.6611 21.1846 26.0399 21.1851C25.4186 21.1855 24.8084 21.3493 24.2705 21.6601C23.7325 21.9709 23.2858 22.4176 22.975 22.9556C22.6643 23.4935 22.5004 24.1037 22.5 24.725V35.28C22.4925 36.545 23.1675 37.715 24.265 38.34C24.8031 38.6543 25.4149 38.8204 26.0381 38.8213C26.6613 38.8222 27.2735 38.6578 27.8125 38.345L36.98 33.065C37.5185 32.7554 37.9659 32.3093 38.277 31.7716C38.5881 31.2339 38.7519 30.6237 38.7519 30.0025C38.7519 29.3813 38.5881 28.7711 38.277 28.2334C37.9659 27.6957 37.5185 27.2496 36.98 26.94V26.9375ZM35.73 30.8925L26.565 36.175C26.4062 36.2682 26.2254 36.3173 26.0413 36.3173C25.8571 36.3173 25.6763 36.2682 25.5175 36.175C25.3586 36.085 25.2267 35.9541 25.1357 35.7958C25.0447 35.6375 24.9978 35.4576 25 35.275V24.725C24.9982 24.5428 25.0453 24.3635 25.1363 24.2057C25.2273 24.0478 25.3589 23.9172 25.5175 23.8275C25.6749 23.7317 25.8557 23.681 26.04 23.681C26.2243 23.681 26.4051 23.7317 26.5625 23.8275L35.73 29.11C35.8881 29.1993 36.0196 29.329 36.1112 29.4858C36.2027 29.6426 36.2509 29.8209 36.2509 30.0025C36.2509 30.1841 36.2027 30.3624 36.1112 30.5192C36.0196 30.676 35.8881 30.8032 35.73 30.8925ZM47.5 10H12.5C10.5115 10.002 8.60498 10.7928 7.19889 12.1989C5.7928 13.605 5.00199 15.5115 5 17.5V42.5C5.00199 44.4885 5.7928 46.395 7.19889 47.8011C8.60498 49.2072 10.5115 49.998 12.5 50H47.5C49.4885 49.998 51.395 49.2072 52.8011 47.8011C54.2072 46.395 54.998 44.4885 55 42.5V17.5C54.998 15.5115 54.2072 13.605 52.8011 12.1989C51.395 10.7928 49.4885 10.002 47.5 10ZM52.5 42.5C52.498 43.8255 51.9706 45.0961 51.0333 46.0333C50.0961 46.9706 48.8255 47.498 47.5 47.5H12.5C11.1745 47.498 9.90391 46.9706 8.96666 46.0333C8.0294 45.0961 7.50198 43.8255 7.5 42.5V17.5C7.50198 16.1745 8.0294 14.9039 8.96666 13.9667C9.90391 13.0294 11.1745 12.502 12.5 12.5H47.5C48.8255 12.502 50.0961 13.0294 51.0333 13.9667C51.9706 14.9039 52.498 16.1745 52.5 17.5V42.5Z" fill="#EC8DA2"/>
</svg>
