<svg width="50" height="40" viewBox="0 0 50 40" fill="none" xmlns="http://www.w3.org/2000/svg">
<path d="M31.98 16.9375L22.81 11.6575C22.2716 11.3475 21.6611 11.1846 21.0399 11.1851C20.4186 11.1855 19.8084 11.3493 19.2705 11.6601C18.7325 11.9709 18.2858 12.4176 17.975 12.9556C17.6643 13.4935 17.5004 14.1037 17.5 14.725V25.28C17.4925 26.545 18.1675 27.715 19.265 28.34C19.8031 28.6543 20.4149 28.8204 21.0381 28.8213C21.6613 28.8222 22.2735 28.6578 22.8125 28.345L31.98 23.065C32.5185 22.7554 32.9659 22.3093 33.277 21.7716C33.5881 21.2339 33.7519 20.6237 33.7519 20.0025C33.7519 19.3813 33.5881 18.7711 33.277 18.2334C32.9659 17.6957 32.5185 17.2496 31.98 16.94V16.9375ZM30.73 20.8925L21.565 26.175C21.4062 26.2682 21.2254 26.3173 21.0413 26.3173C20.8571 26.3173 20.6763 26.2682 20.5175 26.175C20.3586 26.085 20.2267 25.9541 20.1357 25.7958C20.0447 25.6375 19.9978 25.4576 20 25.275V14.725C19.9982 14.5428 20.0453 14.3635 20.1363 14.2057C20.2273 14.0478 20.3589 13.9172 20.5175 13.8275C20.6749 13.7317 20.8557 13.681 21.04 13.681C21.2243 13.681 21.4051 13.7317 21.5625 13.8275L30.73 19.11C30.8881 19.1993 31.0196 19.329 31.1112 19.4858C31.2027 19.6426 31.2509 19.8209 31.2509 20.0025C31.2509 20.1841 31.2027 20.3624 31.1112 20.5192C31.0196 20.676 30.8881 20.8032 30.73 20.8925ZM42.5 0H7.5C5.51149 0.00198554 3.60498 0.792799 2.19889 2.19889C0.792799 3.60498 0.00198554 5.51149 0 7.5V32.5C0.00198554 34.4885 0.792799 36.395 2.19889 37.8011C3.60498 39.2072 5.51149 39.998 7.5 40H42.5C44.4885 39.998 46.395 39.2072 47.8011 37.8011C49.2072 36.395 49.998 34.4885 50 32.5V7.5C49.998 5.51149 49.2072 3.60498 47.8011 2.19889C46.395 0.792799 44.4885 0.00198554 42.5 0ZM47.5 32.5C47.498 33.8255 46.9706 35.0961 46.0333 36.0333C45.0961 36.9706 43.8255 37.498 42.5 37.5H7.5C6.17453 37.498 4.90391 36.9706 3.96666 36.0333C3.0294 35.0961 2.50198 33.8255 2.5 32.5V7.5C2.50198 6.17453 3.0294 4.90391 3.96666 3.96666C4.90391 3.0294 6.17453 2.50198 7.5 2.5H42.5C43.8255 2.50198 45.0961 3.0294 46.0333 3.96666C46.9706 4.90391 47.498 6.17453 47.5 7.5V32.5Z" fill="#EC8DA2"/>
</svg>
